<svg xmlns="http://www.w3.org/2000/svg" viewBox="0 0 512 512" xml:space="preserve"><path d="M437.037 431.499c-48.356 48.358-112.65 74.988-181.037 74.988s-132.68-26.63-181.037-74.988C-17.425 339.111-24.93 192.496 55.306 91.484L40.055 76.233l70.718-70.718L223.92 118.663l-70.717 70.718-16.011-16.011c-25.933 50.751-16.733 113.356 24.586 154.674 25.167 25.167 58.63 39.028 94.221 39.028s69.054-13.86 94.221-39.028c22.578-22.578 36.309-52.524 38.662-84.32 1.809-24.449-3.147-48.794-14.097-70.333l-15.99 15.99-70.717-70.718L401.227 5.514l70.717 70.718-15.25 15.251c80.237 101.013 72.732 247.629-19.657 340.016z"/></svg>