<svg xmlns="http://www.w3.org/2000/svg" viewBox="0 0 512 512" xml:space="preserve"><path d="M437.037 80.502C388.681 32.144 324.387 5.514 256 5.514S123.32 32.144 74.963 80.502C-17.425 172.89-24.93 319.505 55.306 420.517l-15.251 15.251 70.718 70.718L223.92 393.338l-70.717-70.718-16.011 16.011c-25.933-50.751-16.733-113.356 24.586-154.674 25.167-25.167 58.63-39.028 94.221-39.028s69.054 13.86 94.221 39.028c22.578 22.578 36.309 52.524 38.662 84.32 1.809 24.449-3.147 48.794-14.097 70.333l-15.99-15.99-70.717 70.718 113.149 113.149 70.717-70.718-15.25-15.251c80.237-101.013 72.732-247.629-19.657-340.016z"/></svg>