<svg xmlns="http://www.w3.org/2000/svg" viewBox="0 0 100 100"><path d="M23.94 100c-5.83-8.228-8.644-18.748-10.229-26.242-2.343-11.077-.679-23.23 2.081-29.369-.689-3.842.695-8.924 3.46-14.795 2.396-5.084 3.876-7.322 10.717-13.39-3.197 10.486-1.164 15.61-1.164 15.61 6.786-4.326 14.892-7.501 21.619-7.308 16.56.473 24.907 9.197 25.635 35.875 0 0 8.373 9.795 15.678 12.5 2.235.828-11.38 10.216-19.728 13.072-5.8 1.985-30.461-2.039-37.526-9.222 7.025 6.906 22.69 8.46 24.581 9.01 4.8 12.52 11.965 14.281 9.666 14.28z" style="fill:#faf3ed;stroke:#dbd3bd;stroke-width:1.5;stroke-linecap:butt;stroke-linejoin:round;stroke-miterlimit:4"/><path d="M28.805 31.813s.932 5.566 4.228 7.663m-17.241 5.019c.532 4.017 1.861 6.035 3.751 9.068" style="fill:none;stroke:#dbd3bd;stroke-width:1.5;stroke-linecap:round;stroke-linejoin:round;stroke-miterlimit:4"/><path d="M38.512 26.768c.77-10.141 6.296-17.814 16.944-23.277-4.719 10.867-4.667 11.016-3.227 20.759 0 0-6.033.321-13.717 2.518z" style="fill:#faf3ed;stroke:#dbd3bd;stroke-width:1.5;stroke-linecap:butt;stroke-linejoin:round;stroke-miterlimit:4"/></svg>
