<?xml version="1.0" encoding="UTF-8"?>
<svg version="1.1" viewBox="0 0 300 321" xmlns="http://www.w3.org/2000/svg" xmlns:xlink="http://www.w3.org/1999/xlink"><style type="text/css">.d{fill:#d0d4fd;}.l{fill:#e1e4ff;}</style><g><rect fill="#b9c1fd" width="300" height="321"/><polygon class="l" points="163.4 264.9 135.6 293.2 129.3 287.6 161.1 261.6"/><polygon class="l" points="185 297.9 185.2 294.3 146.5 307.6 148.6 315.6"/><polygon class="l" points="27.92 247.1 51.05 252.4 51.18 248 28.45 245.2"/><polygon class="l" points="34.96 266.9 34.7 264.8 52.91 259.7 53.04 264.4"/><polygon class="l" points="40.28 226.7 56.1 235.5 52.51 239.5 38.29 228"/><polygon class="d" points="229.7 107.3 243.5 89.82 247.5 94.19 231.5 109"/><polygon class="d" points="252.8 128.4 250.7 127 258.6 99.41 265 99.72"/><polygon class="d" points="280.8 122.7 277.7 123.6 275.3 99.34 281.3 99.41"/><polygon class="d" points="254.6 12.82 257.8 26.02 254.2 26.72 252.7 12.36"/><polygon class="d" points="269.4 10.9 263.1 24.57 266.8 26.33 270.7 12.51"/><polygon class="d" points="16.28 140.7 26.96 155 23.06 156.4 15.51 142.6"/><polygon class="d" points="7.461 156.1 18.06 164.8 19.67 161.3 8.648 154.8"/><polygon class="d" points="7.768 302.1 7.146 300.7 23.2 299.1 23.41 302.6"/><polygon class="d" points="12.53 316.1 26.2 311.6 24.34 307.8 12.64 314.5"/><path class="d" d="m22.91 97.79s0.8425 2.162 0.04063 4.751c-1.574 3.832-7.027 6.493-9.894 11.46-2.866 4.967-0.3007 9.651 3.067 11.32 3.368 1.665 7.275 1.543 9.16-2.67 2.048-4.83-2.607-7.793-2.607-7.793l0.6387-1.502s5.593 3.162 4.084 8.542c-1.151 4.095-5.826 8.473-11.7 5.175-5.875-3.297-7.511-7.959-4.396-13.56 3.115-5.602 8.836-8.694 9.787-11.41 0.9513-2.711 0.08438-4.554 0.08438-4.554z"/><path class="d" d="m82.01 222.6s1.176 3.578-0.3419 7.707c-2.873 6.078-11.92 9.926-16.97 17.73-5.059 7.807-1.314 15.62 3.986 18.61 5.3 2.988 11.63 3.125 15.03-3.544 3.724-7.655-3.546-12.86-3.546-12.86l1.161-2.38s8.77 5.606 5.868 14.2c-2.212 6.541-10.14 13.24-19.36 7.389-9.213-5.849-11.46-13.55-5.942-22.36 5.515-8.816 15.03-13.34 16.8-17.65 1.77-4.315 0.5271-7.376 0.5271-7.376z"/><path class="d" d="m282.8 288.8s1.648 1.518 2.055 4.104c0.2676 3.992-3.317 8.615-3.684 14.14-0.3675 5.525 3.843 8.499 7.463 8.514 3.62 0.015 6.947-1.749 6.786-6.203-0.2824-5.059-5.568-5.653-5.568-5.653l-0.0862-1.574s6.181 0.369 7.163 5.677c0.7456 4.041-1.437 9.822-7.919 9.455-6.482-0.3668-9.879-3.716-9.567-9.898 0.312-6.181 3.945-11.29 3.615-14.05-0.33-2.756-1.863-3.986-1.863-3.986z"/><path class="d" d="m237.3 39.75s1.648 1.518 2.055 4.104c0.2676 3.992-3.317 8.615-3.684 14.14-0.3675 5.525 3.843 8.499 7.463 8.514 3.62 0.01501 6.947-1.749 6.786-6.203-0.2824-5.059-5.568-5.653-5.568-5.653l-0.0862-1.574s6.181 0.369 7.163 5.677c0.7456 4.041-1.437 9.822-7.919 9.455-6.482-0.3668-9.878-3.716-9.567-9.898 0.312-6.181 3.945-11.29 3.615-14.05-0.33-2.756-1.863-3.986-1.863-3.986z"/><g id="b"><path class="d" d="m113.6 148.1 0.5812-6.661s-8.503-0.7871-13.42-10.93c-5.551-12.92 1.398-18.6 5.439-19.57 4.041-0.9722 10.74 1.281 14.85 11.62 4.107 10.34-2.112 17.59-2.112 17.59l5.239 4.995z"/><path class="d" d="m117.1 145.5s-0.7344 2.367 0.3138 5.104c1.964 4.03 7.969 6.597 11.39 11.78 3.425 5.18 1.046 10.35-2.414 12.31-3.46 1.968-7.629 2.046-9.952-2.378-2.543-5.077 2.19-8.507 2.19-8.507l-0.7928-1.579s-5.717 3.694-3.706 9.391c1.533 4.336 6.839 8.786 12.85 4.932 6.007-3.854 7.397-8.947 3.661-14.8-3.737-5.849-10.06-8.863-11.28-11.72-1.217-2.861-0.4321-4.885-0.4321-4.885z"/></g><use transform="matrix(.9167 0 0 .9167 85.73 94.38)" width="100%" height="100%" xlink:href="#b"/><path class="l" d="m12.5 99.25 10.9-0.5322-2.393-5.455s8.907-5.854 8.907-15.57c0-8.249-3.191-15.03-9.704-15.57-6.514-0.5322-10.3 9.315-10.1 16.5 0.2659 9.846 6.248 14.64 6.248 14.64z"/><path class="l" d="m115.7 68.65 3.722-4.391s-5.583-4.79-3.988-14.37c2.526-11.84 10.24-12.37 13.56-11.04 3.323 1.33 6.913 6.253 4.653 15.57-2.26 9.313-10.24 11.31-10.24 11.31l1.196 6.12z"/><path class="l" d="m70.72 221 10.1-9.18s-10.9-9.047-4.121-28.07c8.375-20.62 21.67-19.29 26.06-17.43 4.387 1.863 13.69 12.11 5.185 32.06-7.046 15.7-20.07 15.83-20.07 15.83l-0.1329 10.78z"/><path class="l" d="m231.4 42.71 0.9306-7.185s-7.71-3.858-9.837-13.84c-1.462-8.515 2.659-15.3 6.647-16.23 3.988-0.9313 10.32-0.05178 12.76 11.58 2.659 11.58-4.52 17.43-4.52 17.43l3.589 3.858z"/><path class="l" d="m275.3 291.4 10.5-2.794-3.589-5.588s6.647-4.657 5.052-16.63c-1.547-11.61-8.774-13.7-12.63-12.91-3.855 0.7983-8.774 8.116-6.647 18.09 2.115 9.921 9.173 12.91 9.173 12.91z"/><path class="l" d="m119.4 68.52s-1.693 1.297-2.319 3.743c-0.6252 3.81 2.318 8.606 2.147 13.95-0.1705 5.346-4.413 7.791-7.823 7.45-3.41-0.3412-6.378-2.364-5.81-6.629 0.7389-4.834 5.771-4.886 5.771-4.886l0.2283-1.504s-5.855-0.2526-7.276 4.752c-1.08 3.81 0.4344 9.582 6.573 9.866 6.138 0.2844 9.65-2.601 9.934-8.573 0.2842-5.972-2.659-11.24-2.09-13.86 0.5684-2.616 2.127-3.648 2.127-3.648z"/><g><polygon class="d" points="4.005 9.392 10.53 10.65 11.44 2.749 13.85 10.65 18.42 9.85 15.56 13.52 19.22 17.64 15.11 16.72 14.88 25.43 11.56 17.41 6.98 20.5 9.956 15.12"/><polygon class="d" points="64.5 92.95 70.09 114.3 89.34 99.42 73.76 117.1 92.86 121.5 73.76 121.6 78.32 143.4 68.91 123.4 53.63 140.3 65.68 119.7 45.84 115.6 65.39 115.2"/><polygon class="d" points="269.3 171.2 257.7 188.2 274.1 192.2 254.7 193.1 259.4 211.9 250.8 195.1 234.7 212 246.7 191.2 228.6 186.1 247.2 186.2 245.3 166.1 252.8 185.3"/><polygon class="l" points="49.66 73.42 51.38 77.88 47.49 81.55 52.3 81.89 51.84 89.68 55.73 82.58 59.96 84.64 58.25 79.14 62.37 75.59 57.22 76.05 56.64 68.61 54.13 75.36"/><polygon class="l" points="88.68 70.78 92.58 77.31 87.08 82.12 92.92 80.63 93.15 91.51 97.15 81.43 102.5 83.95 99.44 77.31 104.9 71.7 98.3 73.88 97.95 63.11 94.06 73.3"/><polygon class="l" points="48.98 134.4 42.91 140.1 46.23 146.6 40.62 144.5 36.73 155.5 37.42 144.2 31.93 145.2 36.39 139.6 32.84 133.4 38.45 134.5 42.91 124.6 42.57 135.5"/><polygon class="l" points="87.2 153 82.62 157.5 84.91 162.9 80.22 160.8 77.7 168.3 77.47 160.7 73.24 160.7 77.58 156.7 75.18 151 79.42 153.2 82.28 144.8 82.51 153.1"/><polygon class="l" points="18.19 282.4 23 286.5 20.14 291.7 25.18 289.5 28.72 297.3 28.72 288.9 32.84 288.6 29.18 285.4 31.7 281 27.69 282.8 24.26 274.4 24.26 283.4"/><polygon class="l" points="154.6 199.1 158.8 203.4 155.2 208.6 160.9 206.3 164.1 213.6 164.1 206 169.4 206.4 165.1 202.5 168.3 197.7 163.1 199.3 160.5 192.3 159.7 200"/><polygon class="l" points="175.9 273.1 184.6 279.2 181.4 289.5 187.9 284.4 196.1 299.2 194 282.6 203 283.1 194.1 276 197.9 266.1 190.5 270.9 184 256.3 185 272.8"/><polygon class="l" points="45.09 131.1 60.19 117.2 47.49 97.24 67.29 105.8 79.07 74.22 79.19 108.2 105.4 101.4 82.16 119.8 95.09 141.5 75.98 130.8 63.17 163.6 63.28 128.3"/><polygon class="l" points="219.7 33.79 214.8 36.31 217.1 42.84 212.2 39.51 208 48.45 209.2 38.71 203.9 38.37 209.2 34.48 206.3 27.83 211 31.27 214.4 23.14 214.2 32.87"/><path class="l" d="m283.9 1.947c-0.1144 0.4581-0.6866 10.31-0.6866 10.31l-5.607-3.092 4.463 5.956-3.662 6.529 5.035-2.52 2.632 7.674 1.373-8.361 4.692 1.145-3.662-4.925 2.517-4.925-4.463 1.833s-2.518-10.08-2.632-9.621z"/><polygon class="l" points="238 131.5 232.2 141 239.8 149.8 230.2 148.1 231.8 165.2 225.4 148.9 216.4 154.2 221.3 143.4 211.6 133.5 223 136.8 223.3 119.5 229.2 135.5"/><polygon class="l" points="289.1 138.1 285.5 145 290.4 151 284 149.9 284.7 161.4 278.6 150.7 271 153.8 275.8 145.8 269.1 139.2 277.3 141.5 277.5 128.7 282.6 141"/><polygon class="l" points="226.7 208.8 222.9 215.7 228.6 223.2 221.3 220.7 221.4 235 216.3 222.1 208.3 226.3 212.8 217.3 204.8 210.6 214 211.9 214.3 198.6 219.6 210.4"/><polygon class="l" points="294 234 291.2 238.3 295 242.6 290.3 242.1 290.5 249.8 286.8 242.5 282.3 244.5 284.9 239.3 280.4 234.8 285.9 234.7 286.9 226.8 289.4 235.4"/><polygon class="l" points="6.024 230.3 9.992 235.6 7.053 240.7 12.64 240.3 14.99 249.6 16.31 239 20.86 240 17.34 235.2 20.28 230.2 14.99 231.6 12.49 222.2 11.46 231.9"/><polygon class="l" points="260.1 146.7 260.3 180.3 287.1 172.8 263.2 191.5 275.9 212.8 256.8 202.3 244 234.7 244.7 201.8 226.3 202.4 242.5 188.3 228.7 169.1 247.3 176.6"/></g><polygon class="d" points="256.3 232 248 290.2 204.7 315.8 213.4 259.1"/><path class="l" d="m256.3 232-1.94 1.224-19.1 32.16c-2.349-0.7366-4.732 0.0635-6.878 1.765l-0.4734-17.23-2.522 1.591 1.463 17.04c-1.028 1.074-1.977 2.338-2.81 3.713l-9.892-13.66-0.7706 0.4863-0.4153 2.711 10.16 12.11c-1.133 2.22-1.962 4.613-2.351 6.872l-10.58-0.9203-0.4027 2.629 10.77-0.053c-0.1763 2.352 0.1967 4.456 1.292 5.914l-16.64 24.01-0.5275 3.443 2.329-1.38 15.97-24.97c0.2438 0.1673 0.5068 0.3154 0.7904 0.4425 1.518 0.6803 3.175 0.5505 4.829-0.1429l-0.6603 12.28 2.412-1.429-0.0891-11.73c2.007-1.291 3.936-3.318 5.519-5.67l11.24 7.533 0.8996-0.5328 0.2217-1.54-11.55-6.741c1.369-2.309 2.393-4.831 2.844-7.213l11.37-4.579 0.3812-2.649-11.53 5.487c0.1973-2.919-0.6312-5.453-2.927-6.886l19.05-30.52zm-32.17 56.03c-5.996-3.982 3.592-23.83 11.05-20.49 8.263 3.701-4.357 24.93-11.05 20.49z"/><polygon class="d" points="198.1 27.5 207.2 85.59 173.4 122.8 165 66.03"/><path class="l" d="m194.5 73.28 9.524-7.726-0.4146-2.644-9.407 8.64c-0.6699-2.848-2.207-5.026-4.822-5.72l9.233-34.78-0.5574-3.555-1.494 1.742-8.802 36.36c-2.461-0.01233-4.503 1.454-6.054 3.713l-5.518-16.32-1.942 2.263 6.41 15.86c-0.6664 1.33-1.202 2.817-1.593 4.376l-13.47-10.14-0.5935 0.6918 0.4003 2.713 13.27 8.583c-0.4296 2.455-0.5183 4.986-0.2257 7.259l-10.38 2.236 0.3882 2.631 10.28-3.222c0.5232 2.3 1.498 4.201 2.974 5.271l-8.841 27.85 0.5084 3.446 1.821-2.004 7.922-28.57c0.2822 0.08813 0.5772 0.1522 0.8854 0.1902 1.65 0.2032 3.196-0.4089 4.573-1.559l2.979 11.93 1.885-2.076-3.536-11.19c1.538-1.825 2.786-4.33 3.607-7.045l12.96 3.89 0.7032-0.7742-0.241-1.537-13.02-3.041c0.629-2.61 0.866-5.322 0.5971-7.732zm-10.71 17.24c-6.902-2.039-3.574-23.83 4.534-22.83 8.985 1.104 3.167 25.11-4.534 22.83z"/><polygon class="d" points="220.1 101.1 214.9 79.56 226 64.53 230.9 85.59"/><path class="l" d="m225.4 79.04 3.707-1.166-0.2258-0.9759-3.643 1.535c-0.2644-0.8452-0.671-1.536-1.241-1.891l2.317-10.73-0.2959-1.279-0.5973 0.8095-1.96 10.98c-0.1055-0.02429-0.2148-0.03912-0.3281-0.04376-0.6071-0.02478-1.147 0.2576-1.61 0.7333l-1.469-4.391-0.6184 0.8383 1.649 4.098c-0.4985 0.7333-0.8722 1.708-1.083 2.752l-4.839-1.057-0.2307 0.3127 0.1371 0.5695 4.835 0.736c-0.1446 0.9998-0.1465 2.025 0.0288 2.922l-3.214 3.199 0.2358 0.9799 3.142-3.539c0.3353 1.049 0.9644 1.818 1.937 1.997l-2.237 13.35 0.3171 1.317 0.4873-0.7008 2.029-13.93c0.8954-0.0733 1.588-0.6929 2.078-1.591l2.535 5.966 0.6332-0.9106-2.844-5.76c0.1988-0.5201 0.3429-1.094 0.4344-1.692l5.231 3.394 0.1936-0.2783-0.2329-1.006-5.109-2.813c0.0759-0.9338 0.0294-1.885-0.1502-2.728zm-3.041 6.652c-3.302-0.134-1.96-9.33 0.9131-8.716 2.575 0.5504 2.067 8.837-0.9131 8.716z"/><polygon class="d" points="205.3 136.3 196.2 116.1 204.3 99.24 213 119"/><g><path class="l" d="m206.4 113.6 3.43-1.828-0.4014-0.9177-3.299 2.18c-0.4152-0.7821-0.9418-1.386-1.567-1.63l0.3046-10.98-0.5258-1.202-0.4384 0.9058 0.0914 11.15c-0.1081-4e-3 -0.2183 1e-3 -0.3305 0.0174-0.6013 0.0873-1.081 0.4645-1.448 1.017l-2.251-4.046-0.4539 0.9379 2.374 3.725c-0.3552 0.8126-0.5434 1.839-0.5591 2.904l-4.951-0.1483-0.1693 0.3498 0.2394 0.5346 4.888-0.1668c0.0417 1.009 0.2283 2.018 0.5655 2.867l-2.571 3.736 0.412 0.9197 2.438-4.057c0.5223 0.969 1.282 1.61 2.271 1.607l0.2553 13.53 0.5539 1.237 0.3501-0.7784-0.566-14.06c0.8666-0.2371 1.433-0.9734 1.75-1.946l3.589 5.398 0.455-1.012-3.854-5.139c0.0997-0.5478 0.1359-1.139 0.116-1.743l5.766 2.373 0.139-0.3092-0.414-0.9464-5.539-1.824c-0.097-0.9319-0.3175-1.858-0.649-2.654zm-1.766 7.098c-3.271 0.4762-3.642-8.81-0.7047-8.735 2.632 0.0669 3.656 8.305 0.7047 8.735z"/><path class="l" d="m170.1 154.1s3.921-9.364 14.42-10.5c10.5-1.139 11.38 11.01 11.26 16.32 0.3795 18.98-13.53 22.9-16.06 23.54-2.53 0.6327-5.186-0.6327-6.198-0.3797-1.012 0.2531-5.692 3.543-8.981 3.417s-18.34-0.5062-21.38-17.08c-1.518-12.53 3.162-17.21 9.487-18.98 6.325-1.772 17.46 3.67 17.46 3.67z"/><path class="l" d="m170.4 155.8s-0.253-12.53 2.024-24.93c0.0905-0.3085 0.5949-0.2896 0.7389-0.3796 0.144-0.0901 1.897-3.29 0.759-4.049-1.138-0.7593-3.522-1.772-5.672-1.012-1.012 3.164 1.012 29.48 1.012 29.48z"/><path class="l" d="m169.7 151.7s-2.909-8.985-4.301-11.14c-1.391-2.151-4.301-6.327-6.451-4.809-2.15 1.519-0.3795 8.225 2.783 11.9 3.162 3.67 7.843 5.188 7.843 5.188z"/><path class="l" d="m110.6 269.4s-1.886-5.05-7.536-5.922c-5.65-0.872-6.434 5.526-6.499 8.338-0.6818 10.02 6.745 12.45 8.098 12.85 1.352 0.3995 2.821-0.201 3.362-0.0412 0.541 0.1598 2.99 2.019 4.772 2.037 1.782 0.0177 9.933 0.2044 11.99-8.479 1.135-6.582-1.278-9.177-4.655-10.28-3.376-1.099-9.533 1.49-9.533 1.49z"/><path class="l" d="m110.4 270.3s0.4513-6.615-0.4688-13.23c-0.0412-0.1654-0.3145-0.1683-0.3901-0.2197-0.0756-0.0513-0.9436-1.788-0.3088-2.16s1.949-0.8457 3.093-0.3891c0.4679 1.698-1.288 15.56-1.288 15.56z"/><path class="l" d="m110.9 268.2s1.799-4.674 2.606-5.775c0.8066-1.101 2.485-3.233 3.61-2.375 1.125 0.8579-1e-3 4.357-1.804 6.215-1.803 1.858-4.372 2.54-4.372 2.54z"/><g id="a"><path class="d" d="m40.38 9.512s-1.837-2.1-4.575-1.529c-2.738 0.5707-1.853 3.788-1.337 5.153 1.635 4.944 5.484 4.812 6.176 4.767 0.6924-0.0448 1.244-0.5913 1.52-0.6092 0.277-0.01793 1.751 0.4477 2.565 0.1439 0.8136-0.3039 4.556-1.643 3.806-6.183-0.7611-3.367-2.362-4.193-4.11-4.13-1.748 0.06288-4.045 2.389-4.045 2.389z"/><path class="d" d="m40.47 9.962s-1.078-3.263-2.78-6.285c-0.05082-0.07237-0.1757-0.02589-0.22-0.03733-0.04433-0.01142-0.776-0.6951-0.5596-0.9854 0.2164-0.2903 0.7221-0.7488 1.331-0.7295 0.5423 0.7353 2.434 7.714 2.434 7.714z"/><path class="d" d="m40.27 8.86s-0.08904-2.565 0.06395-3.236c0.153-0.6714 0.5023-1.992 1.18-1.776 0.6779 0.2157 0.845 2.097 0.3861 3.308-0.4589 1.21-1.495 1.989-1.495 1.989z"/></g><use transform="translate(-29.96 30.39)" width="100%" height="100%" xlink:href="#a"/><use transform="translate(103.9 1.599)" width="100%" height="100%" xlink:href="#a"/><use transform="translate(129.8 9.595)" width="100%" height="100%" xlink:href="#a"/><use transform="translate(111.5 20.79)" width="100%" height="100%" xlink:href="#a"/><use transform="translate(175 161.9)" width="100%" height="100%" xlink:href="#a"/><use transform="translate(156.6 173.5)" width="100%" height="100%" xlink:href="#a"/><use transform="translate(247.3 189.1)" width="100%" height="100%" xlink:href="#a"/><use transform="translate(216.5 289.1)" width="100%" height="100%" xlink:href="#a"/><use transform="translate(198.2 300.3)" width="100%" height="100%" xlink:href="#a"/><use transform="translate(33.56 275.9)" width="100%" height="100%" xlink:href="#a"/><use transform="translate(7.99 267.1)" width="100%" height="100%" xlink:href="#a"/><use transform="translate(15.18 287.5)" width="100%" height="100%" xlink:href="#a"/><use transform="translate(-28.37 255.1)" width="100%" height="100%" xlink:href="#a"/><use transform="translate(-29.96 181.5)" width="100%" height="100%" xlink:href="#a"/><path class="d" d="m33.77 44.84s-11.96 8.382-7.312 12.91c3.467 3.371 12.23-3.459 12.23-3.459s3.589 9.712 7.577 8.116c3.988-1.597 0.1329-16.9 0.1329-16.9s14.22-13.57 9.04-18.49c-5.185-4.923-15.29 11.04-15.29 11.04s-9.572-16.63-12.36-14.5c-4.786 3.592 5.982 21.29 5.982 21.29z"/><path class="d" d="m36.29 196.5s-17.02 10.78-10.64 17.56c6.381 6.785 16.75-4.124 16.75-4.124s3.191 14.1 10.5 12.51c7.312-1.597 1.196-24.61 1.196-24.61s19.41-15.7 12.76-26.74c-5.766-9.579-21 17.16-21 17.16s-13.07-26.33-18.74-19.96c-6.381 9.979 9.173 28.21 9.173 28.21z"/><path class="d" d="m263.7 66.52s-16.22 11.04-10.37 18.23c5.849 7.185 17.15-4.524 17.15-4.524s3.058 14.37 9.97 13.17c6.913-1.197 1.728-25.41 1.728-25.41s18.88-17.56 12.89-27.01c-5.982-9.446-21.27 17.83-21.27 17.83s-13.16-28.34-18.48-22.09c-6.325 7.438 8.375 29.8 8.375 29.8z"/><path class="l" d="m66.57 17.22c-4.546 8.936 14.29 14.62 14.29 14.62s-10.23 16.41 0.9742 20.31 12.83-15.27 12.83-15.27 12.34 10.24 17.53 2.275c6.332-10.4-13.31-15.76-13.31-15.76s5.52-18.68-1.624-21.12c-7.144-2.437-7.306 22.26-7.306 22.26s-18.83-16.25-23.38-7.311z"/><path class="l" d="m100.3 222.4c-3.085 13.49 22.24 13.16 22.24 13.16s-7.631 24.37 8.28 26c13.64 1.3 11.37-22.75 11.37-22.75s23.87 7.149 22.89-7.474c-0.9742-14.62-21.76-11.21-21.76-11.21s1.461-21.28-6.981-26.16c-10.55-5.362-4.384 28.27-4.384 28.27s-28.58-13.32-31.66 0.1625z"/><path class="d" d="m142.6 239.3c0.9741-0.8124-6.17-16.73-9.417-19.98-3.247-3.249-6.17 0-4.546 3.737 1.624 3.737 12.99 17.06 13.96 16.25z"/><path class="d" d="m94.98 37.37c-0.8118 0.6499-6.981-9.748-7.956-14.46-0.9742-4.712 2.215-4.339 3.572-1.625 1.624 3.249 5.196 15.43 4.384 16.08z"/><path class="d" d="m130.5 218.8s-8.519-15.24-8.75-17.55c-0.537-2.073 0.0304-3.84 1.872-4.455 1.841-0.6142 1.98 0.866 1.98 1.864 0 0.998-1.272 2.266-1.272 2.266s2.111 0.3249 2.598-1.787c0.3247-1.137 0-4.062-1.948-4.387-1.948-0.3249-5.358 1.625-5.195 5.524 0.1624 3.899 8.118 17.06 8.118 17.06s-10.39-10.72-13.64-11.54c-3.861-1.196-6.494-0.3249-6.981 2.437-0.4871 2.762 2.123 4.481 3.734 4.712 1.611 0.2303 2.435-1.625 2.435-1.625s-2.223 0.4927-3.374-0.6588c-1.151-1.152-1.192-2.762 0.1124-3.453 1.688-0.6909 4.059 0.225 5.593 1.377 2.071 1.152 13.25 12.16 13.25 12.16z"/><path class="d" d="m89.35 21.42s-3.468-12.65-3.221-14.37c-0.01856-1.608 0.7131-2.794 2.166-2.91 1.453-0.1159 1.288 0.988 1.108 1.715-0.1796 0.7275-1.335 1.422-1.335 1.422s1.48 0.6171 2.215-0.8347c0.4413-0.7705 0.7308-2.961-0.631-3.549-1.362-0.5879-4.198 0.2191-4.781 3.091-0.5832 2.872 2.848 13.9 2.848 13.9s-5.645-9.689-7.866-10.87c-2.599-1.568-4.676-1.407-5.528 0.5187-0.852 1.926 0.7415 3.649 1.874 4.107 1.133 0.4581 2.068-0.7455 2.068-0.7455s-1.709-0.04139-2.341-1.088c-0.6317-1.047-0.3718-2.228 0.7032-2.497 1.355-0.1996 2.918 0.8953 3.83 2.011 1.303 1.213 7.474 11.25 7.474 11.25z"/><path class="l" d="m38.49 54.98c-1.187-0.3394-0.763-13.32 0.1696-17.31 0.9326-3.988 4.578-3.224 4.409 0.3394-0.1696 3.563-3.391 17.31-4.578 16.97z"/><path class="l" d="m270.1 81.36c-1.526-0.6787 1.78-19.77 1.441-25.11-8e-3 -4.648 5.511-5.091 5.426 0.5091 0.6783 6.533-5.002 25.37-6.867 24.6z"/><path class="l" d="m42.39 210.8c1.865 0.7636 7.461-18.5 7.122-24.6-0.3391-6.109-6.189-4.836-5.935 0.4242 0.2543 5.26-2.543 23.67-1.187 24.18z"/><path class="l" d="m276.1 51c0.6172-0.4117 2.006-9.315 0.9772-11.79-0.5143-1.647-1.903-2.419-2.88-2.059-0.9772 0.3602-1.44 1.184-1.389 1.956 1.131-0.9264 2.123-0.6139 2.674 0.1544 1.183 1.647 0.3086 11.68 0.6172 11.73z"/><path class="l" d="m273.3 51.68c0.4496-0.5904-0.9287-8.638-2.705-10.64-0.8164-1.235-1.763-1.513-2.879-1.265-1.017 0.2254-1.594 1.022-1.397 1.735 1.077-0.627 1.859-0.4486 2.63 0.09805 1.654 1.172 4.042 10.12 4.35 10.07z"/><path class="l" d="m42.01 33.91c0.4506-0.2412 1.996-6.254 1.455-8.016-0.243-1.164-1.144-1.786-1.838-1.604-0.6941 0.1819-1.066 0.7156-1.082 1.248 0.8376-0.5598 1.496-0.2794 1.824 0.2842 0.7014 1.208-0.5665 8.032-0.3583 8.087z"/><path class="l" d="m40.04 34.19c0.3476-0.3749-0.06154-5.985-1.146-7.475-0.4776-0.9014-1.108-1.155-1.89-1.06-0.7122 0.08678-1.161 0.5947-1.073 1.097 0.7803-0.3581 1.304-0.1836 1.797 0.2427 1.056 0.9138 2.097 7.21 2.312 7.195z"/><path class="l" d="m47.61 180.1c0.6034-0.3977 2.004-9.063 1.015-11.48-0.4921-1.607-1.841-2.366-2.794-2.021-0.9538 0.3457-1.409 1.145-1.363 1.898 1.107-0.8963 2.071-0.5866 2.604 0.1648 1.143 1.611 0.2379 11.38 0.5382 11.43z"/><path class="l" d="m44.87 180.7c0.4411-0.5727-0.8583-8.419-2.578-10.38-0.7886-1.208-1.71-1.483-2.797-1.248-0.9916 0.2141-1.558 0.9872-1.37 1.683 1.052-0.605 1.813-0.427 2.562 0.1096 1.605 1.15 3.882 9.882 4.183 9.833z"/></g><path class="l" d="m140.6 92.92c2.436 1.781 4.624 9.93 4.624 9.93l-4.999-4.304s3.467 21.66-8.059 41.35c12.93-8.064 15.78-26.73 15.78-26.73l7.379 6.536s5.379-25.73-0.5716-37.66c-6.372 4.688-14.24 10.41-14.24 10.41"/><path class="l" d="m109.9 302.9c-0.7969 1.949-6.478 4.839-6.478 4.839l2.609-4.15s-14.07 5.98-29.33 1.472c7.623 7.41 20.57 6.375 20.57 6.375l-3.061 5.542s18.44 0.1289 25.41-6.315c-4.24-3.531-9.429-7.905-9.429-7.905"/><path class="d" d="m129.3 95.79c-7.445-7.584 4.653-14.37 4.653-14.37s-0.5318-7.052 2.925-9.579c3.456-2.528 8.508 1.464 8.508 1.464s5.849-2.794 10.1 2.927c4.254 5.721-3.589 10.11-3.589 10.11s2.659 15.7 0.9306 28.34c-1.329-1.197-6.514-5.854-6.514-5.854s-0.5318 17.03-14.09 31.53c12.36-16.9 11.17-36.59 11.17-36.59l5.982 5.189s-0.1329-8.648-2.127-14.1c-2.393 0.7983-4.52-2.794-4.52-2.794s-5.982 11.31-13.43 3.725z"/><path class="d" d="m106.7 295.3c4.041-6.513 10.86 0.8126 10.86 0.8126s4.847-1.575 7.207 0.4174c2.359 1.993 0.4259 6.216 0.4259 6.216s2.954 3.625-0.3269 7.584c-3.281 3.959-7.693-0.7928-7.693-0.7928s-10.54 4.541-19.69 5.485c0.6118-1.136 2.989-5.566 2.989-5.566s-12.02 2.531-24.48-4.505c13.94 5.788 27.52 1.592 27.52 1.592l-2.613 5.08s6.033-1.568 9.513-3.896c-0.967-1.542 1.186-3.646 1.186-3.646s-8.939-2.267-4.898-8.78z"/></g></svg>
