<svg xmlns="http://www.w3.org/2000/svg" preserveAspectRatio="none" height="2140" width="2140">
    <path style="fill:#c4c4c4" d="M0-1087.638h2000v2140H0z" transform="matrix(1.07 0 0 1 0 1087.638)"/>
    <path style="fill:#e5e5e5"
          d="m1234.38 874.102-.885 23.945-242.8 117.955-14.18-53.215 257.865-88.685zm-160.39-218.17 15.065 22.175-185.2 188.9-41.65-37.25 211.785-173.825zm-721.31-12.415.885 31.04-120.51 16.85-1.775-14.19 121.4-33.7zm-163.05-96.665 151.53 18.62-.885 29.27s-154.185-35.475-154.19-35.475c.005 0 3.545-12.415 3.545-12.415zm78.87-123.275 105.45 58.53-23.93 26.61-94.815-76.27 13.295-8.87z"
          transform="matrix(1.07 0 0 1 0 1087.638)"/>
    <path style="fill:#d6d6d6"
          d="m162.235 963.942 12.43 25.56-91.13 29.7.69-10.36 78.01-44.9zm-7.59-58.025 1.38 23.485-104.245-3.45-4.145-8.98 107.01-11.055zm-97-962.01 73.465 43.545-10.735 23.75-70.645-58.25 7.915-9.045zm50.86-93.88 71.205 95.575-25.995 9.615-50.295-92.185 5.085-13.005zm1615.35-274.99 42.445 2.045-81.31 190.87-13.805-9.21 52.67-183.705zm111.48-.515 39.89.515-3.58 155.05-20.455 6.14-15.855-161.705zm-212.22-63.45 26.59 29.165-106.875 98.765-11.765-11.26 92.05-116.67zm61.365-516.325 12.785 3.07 21.475 88.015-24.035 4.605-10.225-95.69zm111.48-9.725 8.695 10.75s-26.08 92.11-26.08 92.105c0 .005-25.06-11.765-25.06-11.765s42.445-91.085 42.445-91.09zM1885.195 837.642s10.985 10.12 13.7 27.355c1.785 26.61-22.11 57.425-24.56 94.25-2.45 36.83 25.615 56.655 49.745 56.755 24.13.1 46.305-11.66 45.23-41.355-1.88-33.715-37.11-37.68-37.11-37.68l-.575-10.49s41.205 2.46 47.75 37.84c4.97 26.935-9.575 65.47-52.785 63.025-43.21-2.445-65.85-24.77-63.77-65.975 2.08-41.2 26.295-75.265 24.095-93.635-2.2-18.37-12.42-26.57-12.42-26.57l10.7-3.52zM528.07 392.622l18.585 3.605s7.84 23.845-2.28 51.37c-19.15 40.51-79.425 66.16-113.15 118.2-33.725 52.04-8.76 104.125 26.575 124.04 35.33 19.92 77.495 20.83 100.21-23.625 24.825-51.03-23.635-85.71-23.635-85.71l7.74-15.865s58.455 37.365 39.115 94.65c-14.74 43.605-67.62 88.245-129.03 49.255-61.415-38.99-76.37-90.305-39.61-149.07 36.76-58.765 100.165-88.92 111.965-117.68 11.805-28.76 3.515-49.17 3.515-49.17zm707.89-174.295c38.96 5.43 60.82 38.525 75.355 72.09 25.09 63.195-12.905 107.49-12.905 107.49l32.015 30.525a85187.98 85187.98 0 0 0-33.785 9.445c-.83 7.025 1.66 13.8 3.97 20.28 7.43 17.48 46.065 35.9 68.9 71.635 22.835 35.74 14.335 66.86-22.37 90.415-36.7 23.55-69.125-3.645-78.49-30.135-12.29-34.81 22.64-57.385 22.64-57.385l4.845 9.65s-28.92 20.96-13.38 51.98c14.195 27.025 39.665 26.55 60.805 14.525 21.145-12.025 35.685-43.595 14.755-75.245-20.925-31.645-57.62-47.33-69.625-71.955-2.545-6.57-3.6-13.61-3.25-20.635-6.555 1.835-13.115 3.665-19.67 5.5l3.55-40.7s-51.955-4.81-81.99-66.815c-33.915-78.925 8.54-113.655 33.235-119.595 8.285-1.51 3.185-.85 15.395-1.07zM724.885-349.298c42.5 5.92 66.345 42.02 82.2 78.64 27.375 68.935-14.075 117.26-14.075 117.26l34.925 33.295-36.855 10.305c-.905 7.665 1.81 15.055 4.33 22.125 8.11 19.065 50.255 39.16 75.165 78.145 24.905 38.99 15.635 72.94-24.405 98.63-40.035 25.695-75.405-3.975-85.625-32.875-13.405-37.97 24.7-62.595 24.7-62.595s5.285 10.525 5.285 10.52c0 .01-31.55 22.865-14.6 56.705 15.485 29.485 43.275 28.965 66.335 15.85 23.065-13.115 38.925-47.555 16.095-82.08-22.83-34.53-62.86-51.635-75.95-78.5-2.78-7.17-3.925-14.845-3.55-22.51l-21.455 6 3.875-44.4s-56.68-5.245-89.445-72.89c-37-86.095 9.315-123.98 36.255-130.465 9.035-1.64 3.475-.92 16.795-1.16zM141.14-437.403l11.58 1.61s5.615 14.41.27 31.67c-10.49 25.54-46.84 43.28-65.95 76.385-19.105 33.105-2.005 64.33 20.445 75.43 22.45 11.095 48.495 10.285 61.055-17.8 13.65-32.195-17.38-51.945-17.38-51.945l4.255-10.01s37.285 21.075 27.225 56.94c-7.67 27.3-38.835 56.48-78 34.5-39.16-21.98-50.065-53.055-29.3-90.395 20.76-37.345 58.895-57.955 65.235-76.03 6.34-18.075.565-30.355.565-30.355zM1581.6-822.658l.48.47c7.285 7.41 10.995 16.93 13.22 26.885 1.785 26.61-22.11 57.425-24.56 94.255-2.45 36.825 25.615 56.65 49.745 56.75 24.13.1 46.305-11.66 45.23-41.35-1.88-33.72-37.11-37.685-37.11-37.685l-.575-10.49s41.205 2.46 47.75 37.84c4.97 26.935-9.575 65.47-52.785 63.03-43.21-2.445-65.85-24.775-63.77-65.975 2.08-41.205 26.295-75.27 24.095-93.64-2.2-18.365-12.42-26.57-12.42-26.57 3.57-1.17 7.135-2.345 10.7-3.52z"
          transform="matrix(1.07 0 0 1 0 1087.638)"/>
    <path style="fill:#e5e5e5"
          d="M1835.815 601.072c51.45-1.085 71.47 42.185 79.115 86.79 10.635 79.815-33.67 110.855-33.67 110.855l23.925 37.25-70.005 18.625 12.405-46.115s-47.045-19.9-61.145-86.03c-14.175-66.515 18.61-115.29 44.31-120.61zM653.795 14.552c24.475 3.705 14.2 1.06 31.185 6.39 29.24 12.415 91.27 80.705 34.56 213.73-46.965 104.65-133.805 105.54-133.805 105.54l-.89 71.835-113.425-26.605 67.35-61.195s-72.665-60.305-27.47-187.13c20.88-50.39 53.55-102.005 108.925-118.48 7.38-2.195 15.17-2.625 22.76-3.94zM134.69-673.473c43.42 3.545 64.69 48.775 64.69 103.765 0 64.74-59.37 103.76-59.37 103.76l15.95 36.36-72.665 3.55 25.7-39.91s-39.875-31.925-41.65-97.555c-1.29-47.88 23.925-113.52 67.345-109.97zm709.735-158.465c12.195 2.02 7.23.62 15.125 3.265 22.15 8.865 46.075 41.68 31.015 103.76-15.065 62.08-68.235 75.385-68.235 75.385l7.975 40.795c-10.34-3.705-20.68-7.415-31.025-11.12-4.45 4.93-6.22 11.48-7.965 17.7-3.79 17.44 15.83 52.56 13.935 92.365-1.895 39.805-25.3 59.04-66.215 57.145-40.92-1.895-51.01-40.365-43.815-65.765 9.475-33.36 48.5-31.675 48.5-31.675l-1.52 10.025s-33.545.345-38.47 32.57c-3.79 28.435 15.995 41.915 38.725 44.185 22.735 2.275 51.01-14.02 52.15-49.655 1.135-35.635-18.48-67.6-14.315-93 1.615-6.42 4.625-12.39 8.705-17.585-6.02-2.155-12.04-4.315-18.06-6.475l24.81-29.265s-37.215-31.93-26.58-95.78c9.48-42.22 28.67-74.94 75.26-76.875zm699.59-221.165c43.105 2.465 59.72 42.05 68.745 78.985 17.725 77.155-30.13 116.175-30.13 116.175l23.925 25.72-63.8 29.27 6.205-47.895s-51.395-25.715-65.575-92.23c-9.745-56.76 17.72-101.99 44.305-108.2 8.82-1.725 3.41-.88 16.325-1.825z"
          transform="matrix(1.07 0 0 1 0 1087.638)"/>
    <path style="fill:#d6d6d6"
          d="m1635.39 19.392 49.58 128.26 109.84-93.905-77.04 112.99 109.08 26.725-128.91 6.105 31.275 125.21-57.21-112.23-107.55 112.995 80.09-138.95-120.52-33.595 123.57.765-12.205-134.37zM429.97-468.088l37.22 142.145 128.305-99.01-103.82 117.635L619-277.908l-127.325.98 30.36 145.085-62.68-133.32L357.49-152.428l80.315-137.245-132.225-27.445 130.265-2.945-5.875-148.025zM76.275-1069.313l16.02 52.675 30.51-5.34-19.07 24.43 24.41 27.485-27.46-6.11-1.525 58.025-22.12-53.445-30.51 20.615 19.83-35.88-39.665-38.175 43.48 8.395 6.1-52.675z"
          transform="matrix(1.07 0 0 1 0 1087.638)"/>
    <path style="fill:#e5e5e5"
          d="m1226.545 621.002 43.48 96.96 48.815-32.065-25.17 66.42 59.495 47.335-60.26-3.815 14.495 110.705-54.92-98.49-43.48 34.355 21.36-68.71s-57.97-41.23-57.975-41.23l61.025-1.525-6.865-109.94zM161.71 741.632l22.88 55.73 26.7-12.215-16.78 29.775 24.405 21.38-27.46 1.525v56.495l-23.645-51.915-33.56 14.505 19.07-35.115-32.04-26.725 40.43 6.11zm1750.57-317.605 16.78 57.26 30.515-9.16-18.31 29.01 25.175 28.25-31.275-3.055 1.525 51.155-25.17-48.865-29.75 13.745 17.545-35.12-30.515-29.775 36.615-.765 6.865-52.68zM83.25 393.597l16.65 62.74 35.26-9.8-19.585 33.33 23.505 32.35-30.365-6.865-8.815 70.585-15.67-61.76-37.215 2.94 19.585-34.31-26.445-35.29 36.24 10.78 6.855-64.7zm1345.43-157.38 35.09 78.635 47.29-10.69-25.17 45.81 38.135 50.39-48.815-16.8.765 95.435-34.33-86.27-53.39 28.245 30.51-60.31-53.395-44.285 61.02 8.4 2.29-88.56zm305.11-345.855 1.525 223.7 178.49-49.625-159.42 124.445 84.67 142.005-127.385-70.24-85.43 216.06 4.575-219.115-122.045 3.815 107.555-93.905-91.535-128.26 123.57 50.385 85.43-199.265zm-663.615 303.86 16.78 46.575 35.09-10.69-21.36 32.065 28.225 25.96-35.09-2.29v50.385l-21.355-48.86-38.14 15.27 24.41-34.355-28.225-29.015 34.325 6.11 5.34-51.155zm-521.74-316.835 1.525 55.73 31.275-.76-30.51 29.775 15.255 35.88-31.275-13.74-16.78 49.625-1.525-50.39h-28.225l28.985-26.72-16.015-38.175 28.22 15.27 19.07-56.495zm939.74-168.725c13.225 35.625 26.445 71.255 39.665 106.88l58.735-26.72-38.9 63.37 51.105 58.785-64.075-11.45 10.68 113.755-42.715-108.41-60.26 35.115 32.8-71.765-64.835-65.655 76.275 21.375c.48-38.43 1.06-76.855 1.525-115.28zM527.08-592.913l.76 226.75 174.675-45.805-154.84 122.915 86.19 144.295-127.38-71-85.43 218.35.76-235.145-121.28 19.085 100.685-93.145-84.67-132.84 131.965 57.26 78.565-210.72zm1322.655 363.415 34.325 81.69 42.715-19.09-23.65 45.81 32.8 39.7-42.715-6.87 4.58 76.345-40.43-71-51.105 20.61 32.035-53.44-44.24-44.28 54.16 15.265 1.525-84.74zM286.04-256.983l-2.285 72.525 42.715-7.635-40.43 38.175 22.12 43.52-37.375-13.745-25.935 73.295 4.58-75.585-36.615 6.87 29.75-37.41-23.65-41.225 37.38 6.87 29.745-65.655zm366.895-409.985 2.29 71.765 44.24-14.505s-36.61 37.41-36.615 37.41c.005 0 20.6 44.28 20.595 44.28.005 0-35.85-16.795-35.85-16.795L620.9-477.628l-1.525-72.53-38.9 9.925 36.61-32.065-25.935-43.515L627-599.018l25.935-67.95zm-275.36 36.645 3.815 49.625 34.325-3.05-27.46 23.665 11.44 36.645-28.225-13.74-25.93 47.335 3.05-51.915-32.04-2.29 25.935-24.43-11.44-29.775 29.75 12.975 16.78-45.045zm1051.87-303.095-1.525 64.895 36.61 6.11-32.8 16.795 15.255 43.515-32.795-22.14-27.46 59.55 7.625-64.895-35.085-2.29 35.085-25.955-19.07-44.28 31.275 22.9 22.885-54.205zm463.005-141.24c.76-3.055 17.54 64.13 17.54 64.13l29.75-12.215-16.78 32.83 24.41 32.83-31.275-7.635-9.155 55.73-17.545-51.15-33.56 16.795 24.41-43.515-29.75-39.705 37.375 20.615s3.815-65.655 4.58-68.71z"
          transform="matrix(1.07 0 0 1 0 1087.638)"/>
    <path d="m1364.63 1017.557 57.92-378.08 286.14-180.57-55.83 387.955-288.23 170.695z" style="fill:#d6d6d6"
          transform="matrix(1.07 0 0 1 0 1087.638)"/>
    <path d="M1708.69 458.907c-1.135 7.915-2.275 15.83-3.415 23.74-77.145 123.575-34.8 55.745-127.04 203.505 16.825 10.03 19.26 28.075 19.435 45.885 58.21-27.7 32.545-15.49 76.985-36.635l-2.54 17.655c-41.19 16.585-15.84 6.38-76.045 30.62-3.585 16.755-9.865 33.29-19.015 47.825 59.525 34.735 33.765 19.705 77.28 45.1-.495 3.42-.985 6.84-1.475 10.26l-6 3.555-75.17-50.39c-9.875 16.79-21.045 27.35-36.525 38.55.44 57.655.24 31.78.59 77.635-.045.03-.085.055-.13.08-5.315 3.15-10.63 6.295-15.945 9.445l4.41-82c-10.29 4.22-21.61 3.075-32.2 1.125-4.79-3.255-3.345-1.855-4.95-3.445-76.055 118.905-40.46 63.255-106.785 166.945l-15.525 9.195c1.17-7.65 2.345-15.3 3.515-22.95 70.815-102.195 33.705-48.645 111.33-160.66-4.325-7.14-7.005-10.115-8.535-18.61-1.55-12.5-1.155-5.77-.785-20.21-49.56.245-25.72.13-71.505.355 1.12-7.325.225-1.485 2.685-17.525 45.65 3.97 22.345 1.945 69.91 6.08 2.99-15.915 7.615-31.915 16.285-45.74-49.595-59.11-27.015-32.195-67.75-80.745.925-6.025 1.845-12.05 2.77-18.075l5.135-3.24 66.365 91.66c9.57-15.255 3.685-7.285 18.48-23.27-7.06-82.275-3.75-43.72-9.925-115.665l16.805-10.61 3.19 115.98 9.15-7.485c11.055-6.355 12.745-5.48 24.915-7.305 3.895.76 7.86 1.025 11.735 1.89l127.36-214.36c4.31-2.72 8.62-5.44 12.93-8.165zm-155.065 234.53c-39.7 9.32-61.785 54.335-70.025 91.035-3.735 16.625-3.565 36.415 10.64 47.915 44.6 29.615 128.72-111.88 73.64-136.55-7.715-2.7-3.045-1.51-14.255-2.4z"
          style="fill:#e5e5e5" transform="matrix(1.07 0 0 1 0 1087.638)"/>
    <path d="m1155.73-269.083-55.83-378.4 220.375-256.84L1381-517.103l-225.27 248.02z" style="fill:#d6d6d6"
          transform="matrix(1.07 0 0 1 0 1087.638)"/>
    <path d="M1320.275-904.323c1.24 7.9 2.475 15.795 3.715 23.695-37.38 140.79-16.86 63.505-61.555 231.855 18.575 4.53 26.67 21.63 32.05 38.18 47.49-43.615 26.55-24.385 62.805-57.685l2.765 17.625-63.675 51.655c1.515 17.08.305 34.71-4.145 51.3 67.13 15.675 38.08 8.89 87.155 20.35.54 3.415 1.075 6.83 1.61 10.245-1.565 1.72-3.125 3.44-4.69 5.16-49.37-14.825-20.475-6.145-86.68-26.025-4.705 20.09-11.6 31.365-23.665 47.235 17.45 55.22 9.615 30.42 23.51 74.395-.035.04-.07.075-.1.115-4.155 4.57-8.31 9.145-12.465 13.72-11.895-47.63-5.25-21.02-19.94-79.825-8.425 7.485-19.55 9.885-30.4 10.715l-5.795-1.645c-37.685 135.91-20.05 72.305-52.91 190.81-4.045 4.455-8.09 8.91-12.135 13.36l-3.39-22.97c37.615-118.485 17.905-56.39 59.135-186.27-12.775-8.545-16.745-20.21-19.915-34.535-47.55 14.905-24.68 7.735-68.62 21.515-1.085-7.33-.22-1.485-2.59-17.54 45.12-9.72 22.09-4.76 69.095-14.88-1.115-21.86-1.045-12.465-.825-28.17.53-6.645.845-13.97 2.305-20.33-64.69-41.825-35.24-22.785-88.355-57.13-.88-6.03-1.79-12.055-2.67-18.085 1.32-1.535 2.64-3.07 3.96-4.61 57.605 43.38 27.65 20.825 89.85 67.665 3.84-16.75 1.005-6.555 10.225-30.06-30.195-74.705-16.065-39.755-42.38-104.85l12.945-15.09c22.985 67.995 10.81 31.985 36.515 108.025 6.485-11.04 17.26-17.86 28.845-22.285 8.125-1.405 4.2-.895 11.76-1.605 42.125-173.98 22.56-93.17 58.695-242.42l9.96-11.61zm-69.875 267.72c-3.12.695-6.39.905-9.36 2.09-33.11 13.17-41.36 71.985-40.64 101.115.465 18.65 5.715 41.53 24.75 49.17 51.33 15.17 90.115-144.83 30.22-152.19z"
          style="fill:#e5e5e5" transform="matrix(1.07 0 0 1 0 1087.638)"/>
    <path d="m1506.41-657.463 32.485 140.36-71.845 103.335-34.55-143.52 73.91-100.175z" style="fill:#d6d6d6"
          transform="matrix(1.07 0 0 1 0 1087.638)"/>
    <path d="M1506.41-657.463c.655 2.84 1.315 5.68 1.97 8.52-9.89 45.82-4.71 21.81-15.545 72.02 1.69 1.54 3.86 2.675 5.08 4.61 2.48 4.59 1.36 2.09 3.23 7.555l24.345-10.26c.63 2.715.125.55 1.505 6.505l-24.625 7.74c1.355 10.605.885 4.56.84 18.17 24.98 13.75 13.6 7.485 34.13 18.79.52 2.235 1.035 4.47 1.555 6.71-.57.815-.14.195-1.29 1.855-22.37-14.51-10.74-6.965-34.89-22.635l-2.89 11.27c13.505 27.355 7.185 14.55 18.97 38.42l-4.225 6.07c-10.86-25.57-5.115-12.045-17.23-40.55-2.37 5.185-6.765 8.32-11.51 11.095l-2.005.27-13.53 92.865c-1.08 1.56-2.165 3.115-3.245 4.67l-2.115-8.78c9.055-54.055 4.085-24.385 14.915-89.015-7.26-1.1-10.105-7.58-12.63-13.605-16.03 18.055-8.955 10.085-21.23 23.915l-1.575-6.535 21.47-21.37c-.815-10.97-.61-4.515.1-19.375-25.06-3.815-14.205-2.16-32.57-4.955l-.915-3.8c.655-.885.14-.19 1.535-2.08 18.39 4.015 7.625 1.665 32.3 7.055 1.01-7.345 3.15-12.135 7.28-18.115-8.22-20.425-4.525-11.24-11.085-27.555l.03-.045 4.09-5.545c5.975 17.855 2.645 7.9 9.99 29.865 7.2-4.9 3.6-3.255 10.535-5.485l2.155.49 13.1-73.36c1.325-1.8 2.65-3.6 3.98-5.395zm-21.775 82.93c-2.03 1.265-4.45 2.055-6.095 3.795-9.405 9.97-12.985 36.45-5.78 48.29 1.31 2.15 3.375 3.82 5.485 5.2 1.08.7 2.515.56 3.77.84 19.86.81 23.25-54.425 6.085-58.095z"
          style="fill:#e5e5e5" transform="matrix(1.07 0 0 1 0 1087.638)"/>
    <path d="m1362.065-426.128 57.73 131.985-51.62 114.795-60.345-134.71 54.235-112.07z" style="fill:#d6d6d6"
          transform="matrix(1.07 0 0 1 0 1087.638)"/>
    <path d="M1362.065-426.128c1.17 2.67 2.335 5.34 3.505 8.01-1.3 46.86-.62 22.31-2.045 73.655 1.95 1.2 4.29 1.92 5.845 3.6 4.21 5.75 3.07 3.26 4.5 6.865 15.315-10.12 7.945-5.25 22.105-14.605 1.12 2.555.225.515 2.675 6.115l-23.235 12.385c1.12 2.82 2.705 5.5 3.36 8.465l1.515 9.085c26.91 8.86 14.66 4.825 36.745 12.1.92 2.1 1.84 4.205 2.76 6.31-.405.905-.095.22-.925 2.06-24.71-10.17-11.92-4.905-38.59-15.88-.13 10.29.72 6.505-.67 11.61 18.33 24.44 9.745 12.995 25.745 34.325l-3.035 6.745c-15.15-22.785-7.135-10.73-24.05-36.175-.97 3.555-.245 1.395-2.635 6.31-1.73 2.59-4.345 4.55-6.98 6.205l-1.92.635c2.705 67.295 1.445 36.04 3.77 93.77-.775 1.73-1.555 3.46-2.33 5.19-1.235-2.75-2.465-5.495-3.695-8.245-1.035-54.815-.465-24.705-1.7-90.255-7.45.27-11.32-5.46-14.915-11.03-12.44 20.695-6.95 11.56-16.475 27.41l-2.745-6.13 17.175-24.96c-2.815-10.525-1.38-4.22-3.645-19.055-25.215.86-14.3.485-32.745 1.115-.535-1.185-1.065-2.375-1.6-3.56.48-.995.105-.215 1.13-2.335 18.895.57 7.84.235 33.165.995.495-12.105-.48-5.675 3.69-19.165l-15.95-25.03c.01-.015.015-.03.025-.05 1-2.065 2-4.13 3-6.2l15.365 27.62c3.035-4.315 1.3-2.27 5.255-6.095 1.14-.845 2.695-.89 4.04-1.34l2.205.09c-.435-53.08-.235-28.24-.61-74.525.97-2.01 1.945-4.025 2.92-6.035zm-2.745 84.915c-19.575-.5-17.105 61.4 4.695 58.225 19.675-2.865 12.85-57.78-4.695-58.225zM742.865 606.097l5.845 1.23c.135 1.01.39 2.01.415 3.03.39 14.625-1.215 29.315-2.61 43.845-3.11 29.64-1.72 17.515-3.955 36.395 4.125-9.96 8.09-20.065 13.715-29.295 5.375-7.34 16.56-21.55 24.06-15.835 7.5 5.72-.01 29.045-12.025 41.43-7.54 7.735-17.165 12.745-27.235 16.31l-.41 3.465c18.975-6.615 39.7-13.48 59.85-8.485 22.51 7.325 38.6 24.625 31.03 68.5-13.72 57.88-68.05 56.635-79.93 56.515-11.88-.115-28.2-12.51-31.81-13.575-3.605-1.065-13.39 2.935-22.41.275-9.01-2.665-58.52-18.87-53.975-85.675 1.08-18.805 4.18-46.7 25.37-54.215 3.59-1.275 7.51-1.27 11.26-1.905l6.69.54c21.675 3.665 40.37 17.745 49.49 37.8 1.295-26.95-.395-53.9-3.48-80.67-.275-1.1-2.1-1.12-2.6-1.46-.505-.345-6.29-11.92-2.06-14.4 7.245-3.46 2.505-1.62 14.775-3.82zm386.265-859.215c5.72.13 2.93.095 8.375.115 7.855 1.095 14.845 4.11 21.545 8.17 7.59 5.065-4.1 26.395-5.06 26.995-.96.6-4.32.475-4.925 2.53-8.955 50.13-13.015 101.08-13.49 151.975 18.81-38.095 53.295-60.24 94.61-66.915 69.985-7.59 75.885 73.385 75.045 108.815 2.525 126.525-90.22 152.675-107.085 156.895-16.865 4.215-34.57-4.22-41.315-2.535-6.745 1.69-37.945 23.62-59.865 22.775-21.925-.84-122.26-3.37-142.495-113.87-10.12-83.51 21.08-114.72 63.235-126.53 37.525-7.51 75.52 6.985 109.665 21.39l-.43-6.5c-18.84-7.005-34.905-19.03-48.835-33.315-21.08-24.46-32.885-69.165-18.55-79.29 14.335-10.12 33.73 17.715 43.005 32.055 9.745 17.925 16.15 37.53 22.8 56.76-3.895-58.56-1.85-24.22-5.545-103.055-.45-13.9-1.955-40.675 1.425-54.925 2.615-.765 5.175-1.4 7.89-1.54z"
          style="fill:#e5e5e5" transform="matrix(1.07 0 0 1 0 1087.638)"/>
    <path style="fill:#d6d6d6"
          d="M1575.825 926.612c5.755 13.19 9.59 27.075 13.365 40.93-.055-5.425-.205-10.885.55-16.275 1.02-4.475 3.35-13.275 7.87-11.84 4.52 1.44 5.63 13.98 2.575 22.05-1.9 4.975-5.29 9.105-9.21 12.615l.475 1.75c7.305-6.9 15.54-12.785 25.565-14.575 11.655-.42 22.325 5.085 27.4 27.53 4.995 30.265-19.95 39.19-25.37 41.215-5.425 2.025-15.25-1.075-17.095-.955-1.85.115-5.52 3.76-10.135 4.06-4.615.3-30.27 1.175-41.17-31.775-3.44-9.1-9.34-30.545 8.91-34.35 11.46-2.29 21.32 2.275 29.82 9.505-4.61-13.22-10.63-25.87-17.22-38.205-.34-.48-1.175-.17-1.47-.245-.295-.08-5.17-4.635-3.73-6.57 1.445-1.935 4.815-4.99 8.875-4.865zm122.505-74.62c5.75 13.19 9.59 27.075 13.365 40.93-.055-5.425-.205-10.885.55-16.275 1.02-4.475 3.35-13.275 7.87-11.84 4.515 1.44 5.63 13.98 2.57 22.05-1.895 4.975-5.285 9.105-9.21 12.615l.48 1.75c7.305-6.9 15.535-12.785 25.565-14.575 11.655-.42 22.325 5.085 27.4 27.53 4.995 30.265-19.95 39.19-25.375 41.215-5.42 2.03-15.245-1.075-17.095-.955-1.845.12-5.52 3.76-10.135 4.06-4.615.295-30.27 1.175-41.165-31.775-3.44-9.1-9.345-30.545 8.905-34.35 11.465-2.29 21.32 2.275 29.825 9.505-4.61-13.22-10.63-25.87-17.225-38.205-.335-.48-1.17-.17-1.465-.245-.295-.08-5.17-4.635-3.73-6.57 1.445-1.935 4.815-4.99 8.87-4.865zm-1342.21-10.66c2.9 5.355 4.5 11.63 6.36 17.325 3.54 9.635.78 1.905 7 23.605-.055-2.525-.13-5.055-.025-7.58 0-.855-.015-.38.06-1.42.24-5.805-.025-3.39.52-7.275 1.02-4.475 3.35-13.275 7.865-11.84 4.52 1.44 5.635 13.98 2.575 22.05-1.355 2.995-.725 2.005-1.505 3.19-.325.685-.095.27-.78 1.185-2.685 4.085-1.31 2.37-3.94 5.275-.235.32-.095.15-.44.485-1.43 1.585-.6.74-2.54 2.48h-.005l.48 1.75c1.395-1.35 2.82-2.67 4.385-3.82 1.645-1.435.795-.825 2.535-1.865 6.805-5.005 3.13-2.77 11.075-6.61.435-.255.235-.18.585-.28 3.85-1.86 1.575-1.035 6.98-2h.005c4.395.145 2.935-.28 4.545.21 10.17 3.08 5.835.58 13.24 7.07 6.005 4.76 7.645 13.275 9.615 20.25 3.255 19.455-7.03 34.07-24.925 41.045l-.45.17c-5.42 2.025-15.25-1.075-17.095-.955-1.845.115-5.52 3.76-10.135 4.06l-2.645.07c-20.12-1.15-31.695-13.935-38.52-31.845-3.445-9.1-9.345-30.545 8.905-34.35 4.455-.575 2.81-.655 4.915-.49 2.48-.245 1.1-.27 4.12.33 3.825.305 2.21-.155 4.945.98 6.31.52 11.24 4.775 15.845 8.685l-7.435-18.365-1.54-3.285-8.25-16.555c-.34-.48-1.17-.17-1.465-.245-.295-.08-5.175-4.635-3.73-6.57 1.44-1.935 4.815-4.99 8.87-4.865zm122.505-77.285c5.75 13.19 9.585 27.075 13.36 40.93-.055-5.425-.205-10.885.555-16.275 1.02-4.475 3.345-13.275 7.865-11.84 4.52 1.44 5.635 13.98 2.575 22.05-1.9 4.975-5.285 9.105-9.21 12.615l.475 1.75c7.305-6.9 15.54-12.785 25.565-14.575 11.655-.42 22.33 5.085 27.4 27.53 4.995 30.265-19.945 39.19-25.37 41.215-5.425 2.025-15.25-1.075-17.095-.955-1.845.115-5.52 3.76-10.135 4.06-4.615.3-30.27 1.175-41.17-31.775-3.44-9.1-9.34-30.545 8.91-34.35 11.465-2.29 21.32 2.275 29.825 9.505-4.615-13.22-10.635-25.87-17.225-38.205-.34-.48-1.17-.17-1.465-.245-.3-.08-5.175-4.635-3.73-6.57 1.44-1.935 4.81-4.99 8.87-4.865zm-170.44-58.63c5.75 13.19 9.585 27.075 13.36 40.93-.055-5.425-.205-10.885.555-16.275 1.02-4.475 3.345-13.275 7.865-11.84 4.52 1.44 5.635 13.98 2.575 22.05-1.9 4.975-5.285 9.105-9.21 12.615l.475 1.75c7.31-6.9 15.54-12.785 25.565-14.575 11.655-.42 22.33 5.085 27.4 27.53 4.995 30.265-19.945 39.19-25.37 41.215-5.42 2.025-15.25-1.075-17.095-.96-1.845.12-5.52 3.765-10.135 4.065-4.615.295-30.27 1.175-41.17-31.78-3.44-9.095-9.34-30.54 8.91-34.345 11.465-2.29 21.32 2.275 29.825 9.505-4.615-13.22-10.635-25.87-17.225-38.205-.34-.48-1.17-.17-1.465-.25-.295-.075-5.175-4.63-3.73-6.565 1.44-1.935 4.81-4.99 8.87-4.865zM65.84 625.467c5.755 13.185 9.59 27.075 13.365 40.93-.055-5.425-.205-10.885.55-16.275 1.02-4.475 3.35-13.275 7.865-11.84 4.52 1.44 5.635 13.98 2.575 22.05-1.895 4.975-5.285 9.105-9.21 12.615l.48 1.75c7.305-6.9 15.535-12.785 25.565-14.575 11.655-.42 22.325 5.085 27.4 27.53 4.995 30.265-19.95 39.19-25.375 41.215-5.42 2.025-15.245-1.075-17.095-.96-1.845.12-5.52 3.765-10.135 4.065-4.615.295-30.27 1.175-41.165-31.78-3.44-9.095-9.345-30.54 8.905-34.345 11.465-2.29 21.32 2.275 29.825 9.505-4.61-13.22-10.635-25.87-17.225-38.205-.335-.48-1.17-.17-1.465-.245-.295-.08-5.17-4.635-3.73-6.57 1.445-1.935 4.815-4.995 8.87-4.865zm1837.55-439.725c5.75 13.185 9.59 27.075 13.365 40.925-.055-5.425-.205-10.885.55-16.27 1.02-4.475 3.35-13.28 7.865-11.84 4.52 1.44 5.635 13.98 2.575 22.05-1.895 4.97-5.285 9.105-9.21 12.615l.48 1.75c7.305-6.9 15.535-12.785 25.565-14.58 11.655-.415 22.325 5.09 27.4 27.535 4.995 30.265-19.95 39.19-25.375 41.215-5.42 2.025-15.245-1.08-17.095-.96-1.845.12-5.52 3.765-10.135 4.06-4.615.3-30.27 1.18-41.165-31.775-3.44-9.095-9.345-30.54 8.905-34.345 11.465-2.29 21.32 2.275 29.825 9.505-4.61-13.22-10.635-25.875-17.225-38.205-.34-.48-1.17-.17-1.465-.25-.295-.075-5.17-4.63-3.73-6.565 1.445-1.94 4.815-4.995 8.87-4.865zm-1843.5-38.63c7.945 26.135 5.26 16.435 8.66 28.925-.055-5.43-.205-10.89.555-16.275 1.02-4.475 3.345-13.28 7.865-11.84 4.52 1.44 5.63 13.98 2.575 22.05-1.9 4.975-5.29 9.105-9.21 12.615l.475 1.75c7.305-6.9 15.54-12.785 25.565-14.58 11.655-.415 22.33 5.09 27.4 27.535 4.995 30.265-19.945 39.19-25.37 41.215-5.425 2.025-15.25-1.08-17.095-.96-1.845.12-5.52 3.765-10.135 4.06-4.615.3-30.27 1.18-41.17-31.775-3.44-9.095-9.34-30.54 8.91-34.345 11.465-2.29 21.32 2.275 29.825 9.505-4.615-13.225-10.635-25.875-17.225-38.205-.34-.485-1.17-.175-1.47-.25-.295-.075-5.17-4.63-3.725-6.565 2.14-3.055 5.355-4.34 8.87-4.865zm1238.975-65.305c5.75 13.185 9.585 27.075 13.36 40.93-.055-5.43-.205-10.89.555-16.275 1.02-4.475 3.345-13.28 7.865-11.84 4.52 1.44 5.635 13.98 2.575 22.05-1.9 4.975-5.29 9.105-9.21 12.615l.475 1.75c7.305-6.9 15.54-12.785 25.565-14.58 11.655-.415 22.33 5.09 27.4 27.535 4.995 30.265-19.945 39.19-25.37 41.215-5.425 2.025-15.25-1.08-17.095-.96-1.845.12-5.52 3.765-10.135 4.06-4.615.3-30.27 1.18-41.17-31.775-3.44-9.1-9.34-30.54 8.91-34.345 11.46-2.29 21.32 2.275 29.825 9.505-4.615-13.225-10.635-25.875-17.225-38.205-.34-.485-1.17-.175-1.465-.25-.3-.075-5.175-4.63-3.73-6.57 1.44-1.935 4.81-4.99 8.87-4.86zm122.5-77.285c5.755 13.185 9.59 27.075 13.365 40.93-.055-5.43-.205-10.89.55-16.275 1.02-4.475 3.35-13.28 7.87-11.84 4.52 1.435 5.63 13.98 2.57 22.05-1.895 4.97-5.285 9.105-9.205 12.615l.475 1.75c7.305-6.9 15.54-12.785 25.565-14.58 11.655-.415 22.325 5.09 27.4 27.535 4.995 30.265-19.95 39.19-25.37 41.215-5.425 2.025-15.25-1.08-17.1-.96-1.845.12-5.515 3.765-10.135 4.06-4.615.3-30.265 1.18-41.165-31.775-3.44-9.1-9.34-30.54 8.91-34.345 11.46-2.29 21.315 2.275 29.82 9.505-4.61-13.225-10.63-25.875-17.225-38.205-.335-.485-1.17-.175-1.465-.25-.295-.075-5.17-4.63-3.73-6.57 1.445-1.935 4.815-4.99 8.87-4.86zM55.19-872.268l4.7 12.01c7.945 26.135 5.26 16.435 8.66 28.92-.055-5.425-.205-10.885.555-16.275 1.02-4.475 3.345-13.275 7.865-11.84 4.52 1.44 5.63 13.985 2.575 22.05-1.9 4.975-5.29 9.105-9.21 12.615l.475 1.75c7.305-6.895 15.54-12.785 25.565-14.575 11.655-.42 22.33 5.085 27.4 27.53 4.995 30.265-19.945 39.19-25.37 41.22-5.425 2.025-15.25-1.08-17.095-.96-1.845.12-5.52 3.76-10.135 4.06-4.615.3-30.27 1.175-41.17-31.775-3.44-9.1-9.34-30.545 8.91-34.35 11.465-2.29 21.32 2.28 29.825 9.505-4.615-13.22-10.635-25.87-17.225-38.205-.34-.48-1.17-.17-1.47-.245-.295-.08-5.17-4.635-3.725-6.57 2.14-3.055 5.355-4.335 8.87-4.865zm942.74-63.96c5.755 13.19 9.59 27.075 13.365 40.93-.055-5.425-.205-10.885.55-16.275 1.02-4.475 3.35-13.275 7.87-11.84 4.515 1.44 5.63 13.985 2.57 22.05-1.895 4.975-5.285 9.105-9.205 12.615l.475 1.75c7.305-6.895 15.535-12.785 25.565-14.575 11.655-.42 22.325 5.085 27.4 27.53 4.995 30.265-19.95 39.19-25.37 41.215-5.425 2.03-15.25-1.075-17.1-.955-1.845.12-5.52 3.76-10.135 4.06-4.615.3-30.265 1.175-41.165-31.775-3.44-9.1-9.34-30.545 8.91-34.35 11.46-2.29 21.315 2.28 29.82 9.505-4.61-13.22-10.63-25.87-17.225-38.205-.335-.48-1.17-.17-1.465-.245-.295-.08-5.17-4.635-3.73-6.57 1.445-1.935 4.815-4.99 8.87-4.865zm122.505-74.62c5.75 13.19 9.59 27.075 13.36 40.93-.05-5.425-.205-10.885.555-16.275 1.02-4.475 3.35-13.275 7.865-11.84 4.52 1.44 5.635 13.985 2.575 22.05-1.9 4.975-5.285 9.105-9.21 12.615l.475 1.75c7.31-6.895 15.54-12.785 25.57-14.575 11.65-.42 22.325 5.085 27.4 27.53 4.995 30.265-19.95 39.19-25.375 41.215-5.42 2.03-15.25-1.075-17.095-.955-1.845.12-5.52 3.76-10.135 4.06-4.615.3-30.27 1.175-41.165-31.775-3.445-9.1-9.345-30.545 8.905-34.35 11.465-2.29 21.32 2.275 29.825 9.505-4.615-13.22-10.635-25.87-17.225-38.205-.34-.48-1.17-.17-1.465-.245-.295-.08-5.175-4.635-3.73-6.57 1.44-1.935 4.81-4.99 8.87-4.865zm-173.1-53.3c5.75 13.19 9.585 27.075 13.36 40.93-.055-5.425-.205-10.885.55-16.275 1.02-4.475 3.35-13.275 7.87-11.84 4.52 1.44 5.63 13.985 2.57 22.05-1.895 4.975-5.285 9.105-9.205 12.615l.475 1.75c7.305-6.895 15.54-12.785 25.565-14.575 11.655-.42 22.325 5.085 27.4 27.53 4.995 30.265-19.95 39.19-25.37 41.215-5.425 2.03-15.25-1.075-17.095-.955-1.85.12-5.52 3.76-10.14 4.06-4.615.3-30.265 1.175-41.165-31.775-3.44-9.1-9.34-30.545 8.91-34.35 11.46-2.29 21.315 2.275 29.82 9.505-4.61-13.22-10.63-25.87-17.22-38.205-.34-.48-1.175-.17-1.47-.245-.295-.08-5.17-4.635-3.73-6.57 1.445-1.935 4.815-4.99 8.875-4.865zm-692.415-10.66c5.755 13.19 9.59 27.075 13.365 40.93-.055-5.425-.205-10.885.55-16.275 1.02-4.475 3.35-13.275 7.87-11.84 4.52 1.44 5.63 13.98 2.57 22.05-1.895 4.975-5.285 9.105-9.205 12.615l.475 1.75c7.305-6.9 15.54-12.785 25.565-14.575 11.655-.42 22.325 5.085 27.4 27.53 4.995 30.265-19.95 39.19-25.37 41.215-5.425 2.03-15.25-1.075-17.1-.955-1.845.12-5.515 3.76-10.135 4.06-4.615.3-30.265 1.175-41.165-31.775-3.44-9.1-9.34-30.545 8.91-34.35 11.46-2.29 21.315 2.275 29.82 9.505-4.61-13.22-10.63-25.87-17.225-38.205-.335-.48-1.17-.17-1.465-.245-.295-.08-5.17-4.635-3.73-6.57 1.445-1.935 4.815-4.99 8.87-4.865zM192.605 27.712c43.62 4.69 93.25 100.42 113.11 139.56 0 0 101.575-178.255 140.01-114.405 44.305 73.61-85.07 178.26-85.07 178.26s40.765 153.43-7.975 164.07c-48.735 10.64-70.005-83.365-70.005-83.365s-69.115 72.725-111.65 27.49c-42.535-45.23 70.89-117.065 70.89-117.065s-103.68-121.5-61.145-188.015c5.845-5.32 2.14-2.755 11.835-6.53zM1713.49-848.853c42.405 7.985 92.735 112.695 111.94 153.21 0 0 101.905-181.81 141.785-118.84 39.875 62.965-85.955 180.03-85.955 180.03s34.56 161.41-11.52 169.39c-46.08 7.985-66.46-87.795-66.46-87.795s-75.32 78.04-114.31 30.15c-38.99-47.89 69.115-121.5 69.115-121.5s-97.985-149.075-55.825-198.655c5.475-5.12 1.98-2.72 11.23-5.99zm-1526.415-82.78c27.08 2.705 66.305 73.245 80.535 97.635 0 0 67.35-106.42 101.905-73.605 34.56 32.81-60.255 123.27-60.255 123.27s25.7 101.99-.885 112.635c-26.585 10.64-50.51-54.1-50.51-54.1s-58.415 45.525-81.525 23.06c-31.015-30.155 48.74-86.03 48.74-86.03s-71.78-117.95-39.88-141.895z"
          transform="matrix(1.07 0 0 1 0 1087.638)"/>
    <path style="fill:#e5e5e5"
          d="M892.12 201.862c12.95 1.2 7.39-.38 16.97 3.595 56.28 32.49 46.54 174.365 46.54 174.365s138.525-22.745 145.02 74.725c6.495 97.47-152.6 49.82-152.6 49.82s15.155 160.28-75.755 151.62c-106.06-10.83-55.195-173.28-55.195-173.28s-168.83 2.165-148.27-87.725c20.565-89.885 211.04-1.08 211.04-1.08-7.065-41.81-12.425-84.15-11.88-126.64.205-15.795 1.39-49.37 15.71-61.365 2.385-2 5.61-2.69 8.42-4.035zm-248.18-1275.34 4.33 1c47.615 16.245 10.82 140.79 10.82 140.79s130.955 35.74 88.745 105.05c-34.63 53.07-116.885-15.16-116.885-15.16s-10.82 127.795-85.495 101.8c-74.675-25.99-6.495-135.375-6.495-135.375s-125.54-37.905-95.235-97.47c30.3-59.56 155.84 48.735 155.84 48.735 1.075-38.595 3.29-77.795 14.245-115.04 3.385-11.49 9.59-28.85 22.255-33.415 2.485-.895 5.25-.61 7.875-.915z"
          transform="matrix(1.07 0 0 1 0 1087.638)"/>
    <path style="fill:#d6d6d6"
          d="m828.07 210.767 5.265.105c12.985 2.17 15.15 21.66 12.985 29.24-3.245 14.08-17.315 11.915-17.315 11.915s8.48-8.45 8.48-15.1c0-6.655-.93-16.52-13.2-12.425-12.275 4.095-16.055 15.875-12.48 29.69 13.815 39.05 35.37 75.53 55.425 111.745l1.415-.37c7.765-.23 13.315 3.985 18.8 8.84 21.645 21.66 69.265 127.795 62.77 133.205-6.49 5.42-82.25-83.39-93.07-108.295-3.42-8.425-3-11.955-2.23-20.525-25.52-21.66-55.24-58.595-82.88-75.685-10.225-7.675-26.03-13.78-37.28-9.175-8.695 4.605-8.42 15.34-.75 23.015 7.67 7.675 22.49 4.395 22.49 4.39 0 .01-5.495 12.37-16.235 10.83-10.74-1.535-28.14-12.995-24.89-31.405 3.245-18.41 20.8-24.22 46.535-16.245 21.645 5.415 90.91 76.895 90.91 76.895s-53.03-87.725-54.115-113.715c-.24-13.13 5.515-26.595 17.685-32.98 3.64-1.91 7.79-2.63 11.685-3.95zM593.795-1069.368l3.815 1.025c9.075 3.92 7.15 18.52 4.205 23.655-4.9 9.68-14.765 5.565-14.765 5.565s7.7-4.63 8.9-9.48c1.195-4.85 2.295-12.21-7.39-11.435-9.68.77-14.56 8.68-14.435 19.395 2.665 28.1 10.82 55.695 18.035 82.95 5.62 1.64 8.82 7.35 11.735 11.925 10.825 21.66 34.635 102.885 29.22 107.22-5.41 4.33-46.535-64.98-53.03-96.39-.435-2.79-1.09-6.805-1.225-9.255-.08-1.47.125-2.94.19-4.405-14.635-20.69-25.495-44.745-42.715-63.555-6.075-7.435-16.495-14.735-25.525-13.405-7.165 1.79-8.9 9.665-4.69 16.64 4.21 6.98 15.605 7.255 15.605 7.255s-6.23 8.025-13.78 4.97c-7.555-3.055-18.175-14.545-12.495-27.38 5.68-12.835 19.52-13.905 36.845-3.455 21.71 18.825 36.375 45.425 50.985 69.985l.57-.45c-6.465-25.63-20.74-63.89-18.11-89.75 2.175-9.955 8.81-17.81 18.825-20.85 2.95-.895 6.15-.515 9.23-.775z"
          transform="matrix(1.07 0 0 1 0 1087.638)"/>
    <path style="fill:#e5e5e5"
          d="M312.46 126.637c13.23 3.21 16.15 15.035 17.575 27.085 2.26 40.715-35.035 169.095-47.47 164.005-9.04-3.395 9.61-126.115 7.91-161.18-.2-11.075 3.15-24.33 14.66-28.865 2.295-.9 4.885-.695 7.325-1.045zm-43.94-87.715c6.525.9 9.765 3.865 13.415 8.815 11.46 13.055 20.12 65.355 17.18 69.17-2.005.325-17.185-57.875-27.885-65.54-4.99-3.58-10.06-4.765-17.075-.73-1.25-4.64 2.525-9.795 9.13-11.22zm39.495-16.815c8.63.51 13.17 6.48 16.135 13.99 6.59 16.075-2.745 73.84-6.765 76.49-2-.345 4.035-65.475-3.59-76.215-3.555-5.005-9.975-7.07-17.355-1.095-.31-5.015 2.725-10.345 9.085-12.65zm1519.89-758.405c14.24 1.3 17.35 14.895 18.38 27.005 4.52 43.545-33.345 169.095-45.775 164.005-10.175-4.525 11.865-131.77 9.605-167.4.175-7.62 2.205-15.47 8.48-20.46 1.85-1.47 4.26-2.055 6.39-3.08zM272.6-854.328c11.195.485 14.315 10.3 14.485 20.05-1.13 23.755-22.605 115.37-30.515 113.11-7.91-2.265-5.085-88.79 1.13-115.37 2.9-10.155 4.875-14.35 14.9-17.79zm1517.065 31.315c6.705.885 10.05 3.91 13.82 8.97 11.84 13.34 21.03 66.98 18.03 70.915-2.055.345-17.965-59.315-28.995-67.125-5.145-3.645-10.35-4.835-17.53-.655-1.315-4.755 2.53-10.065 9.31-11.565zm40.45-17.485c8.865.47 13.555 6.58 16.645 14.27 6.855 16.465-2.4 75.815-6.515 78.56-2.055-.34 3.775-67.24-4.11-78.215-3.68-5.125-10.285-7.205-17.83-1.03-.34-5.145 2.745-10.635 9.255-13.035zm-1579.75-76.11c7.635 4.055 4.95 1.39 8.88 7.07 7.23 9.935 9.96 47.33 7.64 49.83-1.43.1-8.37-41.87-15.41-47.965-3.285-2.84-6.78-4-11.98-1.615-.585-3.345 2.405-6.735 7.155-7.31zm28.905-9.295c6.045.915 8.855 5.415 10.46 10.895 3.605 11.75-6.695 51.83-9.7 53.435-1.385-.37 7.065-45.855 2.39-53.905-2.18-3.76-6.57-5.63-12.155-1.895.105-3.555 2.59-7.11 7.215-8.325zM734.52 930.712c.005 0 34.59 29.155 62.855 52.695-46.46 42.955-169.395 42.095-169.395 42.095l20.405-36.945s-86.33 6.895-137.145-42.495c101.675 30.05 195.485-9.81 195.48-9.81.005 0-17.385 27.665-17.385 27.665s37.865-19.265 43.18-32.26zm202.395-1402.1s52.465-38.125 94.94-69.375c39.665 79.525 3.81 251.005 3.81 251.005l-49.19-43.565s-18.955 124.435-105.15 178.185c76.825-131.25 53.715-275.625 53.715-275.625l33.325 28.69s-14.585-54.315-30.825-66.19"
          transform="matrix(1.07 0 0 1 0 1087.638)"/>
    <path style="fill:#d6d6d6"
          d="M739.7 862.767c17.16 1.76 31.875 11.145 43.64 23.4 0 0 32.31-10.5 48.035 2.78 15.73 13.285 2.84 41.435 2.84 41.435s19.69 24.165-2.18 50.55c-21.87 26.385-51.275-5.285-51.275-5.285s-70.26 30.27-131.22 36.56c4.08-7.575 19.92-37.1 19.92-37.1s-80.09 16.87-163.195-30.03c92.92 38.585 183.47 10.61 183.47 10.61l-17.42 33.86s40.215-10.45 63.41-25.97c-6.445-10.28 7.905-24.305 7.905-24.305s-59.585-15.105-32.65-58.525c9.36-13.935 12.65-14.83 28.72-17.98zM926.505-614.088c15.84-.41 30.52 5.585 42.925 15.11 0 0 38.99-18.625 67.345 19.51 28.355 38.135-23.925 67.405-23.925 67.405s17.72 104.65 6.2 188.9c-8.86-7.98-43.42-39.02-43.42-39.02s-3.545 113.515-93.93 210.185c82.41-112.63 74.435-243.885 74.435-243.885l39.875 34.585s-.885-57.645-14.175-94.005c-15.95 5.32-30.13-18.625-30.13-18.625s-39.875 75.38-89.5 24.83c-49.62-50.55 31.015-95.78 31.015-95.78s-3.545-47.005 19.495-63.855c7.215-4.34 2.775-2.19 13.79-5.355z"
          transform="matrix(1.07 0 0 1 0 1087.638)"/>
</svg>
